<svg xmlns="http://www.w3.org/2000/svg" viewBox="0 0 16 16" role="img" aria-label="JavaScript">
  <rect width="16" height="16" rx="4" fill="#f7df1e"/>
  <path d="M5.3 4.2h1.5v5.4c0 1.6-.8 2.2-2 2.2-.6 0-1.2-.2-1.7-.6l.7-1c.2.2.5.3.8.3.4 0 .7-.2.7-.9Zm3 .2h1.5v5.9c0 1-.6 1.6-1.7 1.6-.8 0-1.4-.3-1.9-.8l.8-.9c.3.3.6.5 1 .5.3 0 .4-.1.4-.5Zm2.2 5.6.9-.9c.4.4 1 .7 1.6.7.5 0 .8-.2.8-.5 0-.3-.3-.5-1-.7l-.4-.1c-1.1-.4-1.8-.9-1.8-2 0-1 .8-1.8 2.1-1.8.9 0 1.6.3 2.1.9l-.8.9c-.4-.3-.8-.5-1.2-.5-.4 0-.6.2-.6.5 0 .3.3.4 1 .7l.4.1c1.2.4 1.8 1 1.8 2 0 1.2-1 1.9-2.4 1.9-1.1 0-2-.3-2.5-.9Z" fill="#111827" transform="scale(.56) translate(6 2.6)"/>
</svg>
